<svg width="4834" height="1019" viewBox="0 0 4834 1019" fill="none" xmlns="http://www.w3.org/2000/svg">
<path d="M1616.6 81.6176C1663.39 80.3088 1715.08 79.4908 1771.69 79.1636C1828.3 78.8364 1861.18 79 1870.34 79.6544C1908.3 81.2904 1934.47 90.7793 1948.87 108.121C1963.59 125.463 1967.03 148.367 1959.18 176.834L1955.74 188.122H1880.16L1881.14 185.178C1885.39 170.453 1884.9 159.328 1879.67 151.803C1874.43 144.277 1862.65 140.514 1844.33 140.514H1671.57L1624.45 304.934C1621.5 314.423 1620.03 322.767 1620.03 329.965C1620.03 336.836 1621.34 343.053 1623.96 348.616C1626.9 353.851 1631.48 357.777 1637.7 360.395C1644.24 363.013 1652.59 364.321 1662.73 364.321H1774.63C1781.18 364.321 1787.4 363.831 1793.29 362.849C1799.18 361.54 1804.57 359.741 1809.48 357.45C1814.39 354.832 1818.97 351.888 1823.22 348.616C1827.81 345.016 1831.73 341.09 1835 336.836C1838.28 332.583 1841.22 328.002 1843.84 323.094C1846.46 317.858 1848.58 312.296 1850.22 306.406L1860.53 270.087H1859.05C1848.26 282.848 1832.55 289.228 1811.94 289.228H1798.68C1768.25 289.228 1740.61 288.737 1715.74 287.756L1731.93 230.332C1757.78 229.677 1787.07 229.35 1819.79 229.35H1945.93L1921.88 315.241C1912.39 348.288 1895.54 374.792 1871.32 394.751C1847.44 414.383 1816.03 425.018 1777.09 426.654C1764.33 427.308 1742.9 427.472 1712.79 427.144C1682.69 427.144 1661.42 426.981 1648.99 426.654C1608.74 425.018 1579.79 413.893 1562.12 393.279C1544.45 372.665 1539.7 345.998 1547.88 313.278C1560.32 262.234 1583.22 185.014 1616.6 81.6176Z" fill="#053A44"/>
<path d="M1926.29 425.181C1934.8 391.479 1950.51 334.219 1973.41 253.399C1991.73 187.632 2008.91 130.371 2024.95 81.6176H2097.09L2009.73 385.917H2011.2C2018.07 376.755 2025.44 370.375 2033.29 366.775C2041.47 362.849 2051.45 360.886 2063.23 360.886H2179.55C2197.87 360.886 2212.43 355.978 2223.23 346.162C2234.36 336.018 2242.7 321.294 2248.26 301.989L2311.08 81.6176H2382.74C2362.46 161.455 2340.86 239.002 2317.96 314.259C2307.49 349.597 2289.49 376.919 2263.97 396.224C2238.77 415.529 2203.43 425.181 2157.95 425.181H1926.29Z" fill="#053A44"/>
<path d="M2328.47 425.181C2339.27 383.954 2355.14 326.693 2376.08 253.399L2426.63 81.6176H2498.78C2489.62 115.647 2473.58 172.907 2450.68 253.399L2400.13 425.181H2328.47Z" fill="#053A44"/>
<path d="M2442.53 425.181C2453.33 384.281 2469.2 327.02 2490.14 253.399L2540.69 81.6176H2613.82L2526.46 386.898H2527.93C2534.8 376.755 2542 369.884 2549.52 366.285C2557.05 362.358 2566.54 360.395 2577.99 360.395H2631.49C2689.4 360.395 2735.38 360.886 2769.4 361.867L2751.74 425.181H2442.53Z" fill="#053A44"/>
<path d="M2778.54 425.181C2789.34 383.954 2805.21 326.693 2826.15 253.399L2876.7 81.6176H2949.83L2903.2 244.074H2904.68C2906.97 240.475 2909.26 237.366 2911.55 234.749C2914.16 231.804 2916.78 229.35 2919.4 227.387C2922.02 225.096 2924.63 223.297 2927.25 221.988C2930.2 220.352 2933.31 219.043 2936.58 218.061C2939.85 217.08 2943.12 216.425 2946.39 216.098C2949.99 215.444 2953.59 215.117 2957.19 215.117H3125.54L3163.82 81.6176H3236.95C3227.79 115.647 3211.76 172.907 3188.85 253.399L3138.3 425.181H3065.17L3106.89 279.903H2892.9L2851.67 425.181H2778.54Z" fill="#053A44"/>
<path d="M3179.25 425.181C3190.05 384.281 3205.92 327.02 3226.86 253.399L3277.41 81.6176H3585.64L3568.46 141.005C3532.14 141.987 3477.83 142.477 3405.52 142.477H3333.37L3302.94 247.019H3304.9C3311.77 237.53 3318.97 230.822 3326.5 226.896C3334.35 222.97 3343.84 221.006 3354.96 221.006H3382.45C3449.85 221.006 3500.24 221.333 3533.62 221.988L3517.42 278.921C3483.72 279.576 3433.16 279.903 3365.76 279.903H3293.61L3270.05 361.377H3344.16C3416.48 361.377 3470.46 362.031 3506.13 363.34L3488.46 425.181H3179.25Z" fill="#053A44"/>
<path d="M3521.49 425.181C3532.29 383.626 3548.16 326.366 3569.1 253.399L3619.66 81.6176H3969.11C3965.18 100.268 3956.35 133.479 3942.61 181.251C3936.39 203.174 3926.74 221.333 3913.65 235.73C3900.89 250.127 3887.47 259.78 3873.4 264.688C3903.5 279.412 3913.65 304.28 3903.83 339.29L3878.8 425.181H3805.18L3825.3 354.014C3829.23 340.599 3828.74 329.801 3823.83 321.621C3818.92 313.441 3808.78 309.351 3793.4 309.351H3627.51L3594.62 425.181H3521.49ZM3638.8 269.596H3640.27C3653.03 254.545 3669.23 247.019 3688.86 247.019H3800.76C3832.83 247.019 3853.61 230.168 3863.09 196.466L3877.82 144.931H3674.63L3638.8 269.596Z" fill="#053A44"/>
<path d="M3915.02 425.181C3925.82 383.626 3941.69 326.366 3962.63 253.399L4013.18 81.6176H4101.53L4176.62 348.616L4178.58 347.143C4181.53 332.419 4187.91 319.167 4197.72 307.388L4386.19 81.6176H4484.85C4475.68 115.647 4459.65 172.907 4436.75 253.399L4386.68 425.181H4313.55L4372.94 216.589C4376.87 203.174 4384.23 187.141 4395.03 168.49L4394.05 167.018L4181.04 425.181H4127.05L4055.88 167.018L4054.41 168.49C4054.08 186.159 4051.79 202.192 4047.54 216.589L3988.15 425.181H3915.02Z" fill="#053A44"/>
<path d="M4426.93 425.181C4437.73 384.281 4453.6 327.02 4474.54 253.399L4525.1 81.6176H4833.32L4816.14 141.005C4779.82 141.987 4725.51 142.477 4653.2 142.477H4581.05L4550.62 247.019H4552.58C4559.45 237.53 4566.65 230.822 4574.18 226.896C4582.03 222.97 4591.52 221.006 4602.64 221.006H4630.13C4697.53 221.006 4747.92 221.333 4781.3 221.988L4765.1 278.921C4731.4 279.576 4680.84 279.903 4613.44 279.903H4541.29L4517.73 361.377H4591.84C4664.16 361.377 4718.15 362.031 4753.81 363.34L4736.14 425.181H4426.93Z" fill="#053A44"/>
<path d="M1642.16 489.155H1975.91C1971.33 508.787 1963.47 538.072 1952.35 577.009C1941.88 613.656 1921.92 638.36 1892.47 651.12C1922.9 664.863 1933.37 691.039 1923.88 729.649C1916.36 760.406 1900.82 785.274 1877.26 804.252C1854.03 823.229 1824.74 832.718 1789.4 832.718H1544C1554.14 794.108 1570.01 736.848 1591.61 660.937L1642.16 489.155ZM1888.55 550.505H1696.64L1668.17 651.12H1669.65C1682.08 635.742 1699.59 628.053 1722.16 628.053H1828.18C1838.32 628.053 1846.66 626.58 1853.21 623.635C1859.75 620.363 1864.66 616.11 1867.93 610.874C1871.53 605.312 1874.64 597.95 1877.26 588.788L1888.55 550.505ZM1657.38 687.44L1634.31 768.914H1793.33C1824.09 768.914 1843.23 755.498 1850.75 728.668C1858.61 701.183 1846.83 687.44 1815.42 687.44H1657.38Z" fill="#77CDDE"/>
<path d="M2056.58 834.191C2017.31 832.555 1989.01 821.43 1971.67 800.816C1954.33 780.202 1949.58 753.862 1957.43 721.796C1966.92 682.205 1989.17 604.658 2024.18 489.155C2072.61 487.846 2123.98 487.028 2178.3 486.701C2232.94 486.046 2266.15 486.21 2277.93 487.192C2316.54 489.155 2344.19 500.116 2360.88 520.076C2377.56 540.035 2381.82 566.538 2373.64 599.586C2363.49 640.159 2351.71 680.896 2338.3 721.796C2314.74 793.454 2266.15 830.919 2192.53 834.191C2180.42 834.845 2157.68 835.172 2124.31 835.172C2091.26 835.172 2068.68 834.845 2056.58 834.191ZM2070.32 769.895H2197.44C2232.78 769.895 2256.17 749.936 2267.62 710.017L2295.6 611.365C2307.05 571.119 2295.27 550.996 2260.26 550.996H2080.14L2034.98 710.017C2023.53 749.936 2035.31 769.895 2070.32 769.895Z" fill="#77CDDE"/>
<path d="M2343.5 832.718C2354.3 791.164 2370.17 733.903 2391.11 660.937L2441.66 489.155H2791.12C2787.19 507.805 2778.36 541.017 2764.61 588.788C2758.4 610.711 2748.74 628.871 2735.66 643.268C2722.89 657.665 2709.48 667.317 2695.41 672.225C2725.51 686.949 2735.66 711.817 2725.84 746.827L2700.81 832.718H2627.19L2647.31 761.552C2651.24 748.136 2650.75 737.339 2645.84 729.158C2640.93 720.978 2630.79 716.888 2615.41 716.888H2449.52L2416.63 832.718H2343.5ZM2460.8 677.133H2462.28C2475.04 662.082 2491.23 654.556 2510.87 654.556H2622.77C2654.84 654.556 2675.61 637.705 2685.1 604.003L2699.83 552.469H2496.63L2460.8 677.133Z" fill="#77CDDE"/>
<path d="M2837.64 489.155C2884.43 487.846 2936.13 487.028 2992.74 486.701C3049.34 486.374 3082.23 486.537 3091.39 487.192C3129.35 488.828 3155.52 498.316 3169.92 515.658C3184.64 533 3188.08 555.904 3180.23 584.371L3176.79 595.659H3101.21L3102.19 592.715C3106.44 577.99 3105.95 566.866 3100.71 559.34C3095.48 551.814 3083.7 548.051 3065.38 548.051H2892.61L2845.5 712.471C2842.55 721.96 2841.08 730.304 2841.08 737.502C2841.08 744.373 2842.39 750.59 2845.01 756.153C2847.95 761.388 2852.53 765.314 2858.75 767.932C2865.29 770.55 2873.64 771.859 2883.78 771.859H2995.68C3002.23 771.859 3008.44 771.368 3014.33 770.386C3020.22 769.077 3025.62 767.278 3030.53 764.987C3035.44 762.37 3040.02 759.425 3044.27 756.153C3048.85 752.554 3052.78 748.627 3056.05 744.373C3059.32 740.12 3062.27 735.539 3064.89 730.631C3067.5 725.396 3069.63 719.833 3071.27 713.944L3081.57 677.624H3080.1C3069.3 690.385 3053.6 696.765 3032.98 696.765H3019.73C2989.3 696.765 2961.65 696.275 2936.79 695.293L2952.98 637.869C2978.83 637.214 3008.12 636.887 3040.84 636.887H3166.97L3142.92 722.778C3133.44 755.826 3116.58 782.329 3092.37 802.288C3068.49 821.921 3037.07 832.555 2998.14 834.191C2985.38 834.845 2963.94 835.009 2933.84 834.682C2903.74 834.682 2882.47 834.518 2870.04 834.191C2829.79 832.555 2800.83 821.43 2783.16 800.816C2765.49 780.202 2760.75 753.535 2768.93 720.815C2781.36 669.771 2804.27 592.551 2837.64 489.155Z" fill="#77CDDE"/>
<path d="M3146.85 832.718C3157.65 791.818 3173.52 734.557 3194.46 660.937L3245.01 489.155H3553.24L3536.06 548.542C3499.74 549.524 3445.42 550.015 3373.11 550.015H3300.96L3270.53 654.556H3272.5C3279.37 645.067 3286.57 638.36 3294.09 634.433C3301.95 630.507 3311.43 628.543 3322.56 628.543H3350.04C3417.45 628.543 3467.84 628.871 3501.21 629.525L3485.02 686.458C3451.31 687.113 3400.76 687.44 3333.36 687.44H3261.21L3237.65 768.914H3311.76C3384.07 768.914 3438.06 769.568 3473.73 770.877L3456.06 832.718H3146.85Z" fill="#77CDDE"/>
<path d="M3592.65 489.155C3700.96 486.21 3777.68 485.556 3822.84 487.192C3837.89 487.846 3850.98 490.136 3862.1 494.063C3873.56 497.662 3882.55 502.57 3889.1 508.787C3895.64 514.677 3900.88 521.548 3904.8 529.401C3908.73 537.254 3910.69 545.434 3910.69 553.941C3910.69 562.121 3910.04 570.628 3908.73 579.463C3907.75 584.371 3906.11 589.933 3903.82 596.15H3831.18L3833.15 588.788C3841 562.285 3830.04 549.033 3800.26 549.033H3644.19L3633.39 582.899C3628.48 597.623 3628.81 608.584 3634.37 615.782C3640.26 622.654 3651.55 626.089 3668.24 626.089H3792.9C3809.91 626.089 3824.47 628.543 3836.58 633.451C3849.02 638.032 3858.34 643.922 3864.56 651.12C3871.1 657.992 3875.68 666.335 3878.3 676.152C3881.24 685.64 3882.55 694.966 3882.23 704.127C3881.9 712.962 3880.59 721.96 3878.3 731.122C3875.03 743.883 3870.12 755.989 3863.58 767.441C3857.36 778.566 3849.18 789.2 3839.04 799.344C3828.89 809.487 3816.13 817.831 3800.75 824.375C3785.7 830.592 3768.85 834.027 3750.2 834.682C3738.09 835.009 3714.53 835.172 3679.52 835.172C3644.84 835.172 3620.95 835.009 3607.87 834.682C3568.6 833.046 3540.3 823.229 3522.96 805.233C3505.62 786.91 3501.85 760.897 3511.67 727.195C3512.65 724.25 3513.63 721.469 3514.61 718.852H3587.25L3585.29 727.195C3582.02 737.993 3581.36 746.664 3583.33 753.208C3585.29 759.752 3589.54 764.496 3596.09 767.441C3602.63 770.386 3611.79 771.859 3623.57 771.859H3746.27C3776.7 771.859 3795.84 758.443 3803.7 731.612C3811.55 703.8 3800.75 689.894 3771.3 689.894H3644.19C3629.79 689.894 3617.03 688.422 3605.9 685.477C3595.11 682.532 3586.27 678.606 3579.4 673.698C3572.53 668.462 3566.97 662.573 3562.71 656.029C3558.79 649.484 3556.17 642.286 3554.86 634.433C3553.88 626.58 3553.71 618.891 3554.37 611.365C3555.02 603.512 3556.5 595.496 3558.79 587.316C3568.27 554.923 3579.56 522.202 3592.65 489.155Z" fill="#77CDDE"/>
<path d="M1544 1005.65L1601.69 895.015H1623.66L1681.34 1005.65H1660.17L1648.47 982.258H1577.19L1565.34 1005.65H1544ZM1640.25 965.347L1613.86 913.665H1611.64L1582.72 970.404L1583.04 970.72C1586.3 967.138 1590.89 965.347 1596.79 965.347H1640.25Z" fill="#053A44"/>
<path d="M1754.02 1006.28C1729.99 1005.33 1717.98 993.848 1717.98 971.827C1717.98 971.089 1718.03 970.246 1718.14 969.298H1736.95V971.352C1736.95 983.469 1743.53 989.528 1756.7 989.528H1795.11C1800.9 989.528 1805.07 988 1807.59 984.945C1810.12 981.889 1811.39 978.149 1811.39 973.723C1811.39 968.876 1810.12 965.083 1807.59 962.344C1805.17 959.499 1800.85 958.076 1794.63 958.076H1752.59C1746.27 958.076 1740.85 957.181 1736.31 955.39C1731.89 953.493 1728.57 950.912 1726.36 947.645C1724.15 944.274 1722.56 940.902 1721.62 937.53C1720.67 934.053 1720.19 930.207 1720.19 925.993C1720.09 913.243 1720.46 902.918 1721.3 895.015C1734.58 894.594 1749.59 894.33 1766.34 894.225C1783.1 894.12 1792.74 894.172 1795.27 894.383C1806.01 894.805 1813.81 897.807 1818.66 903.392C1823.61 908.976 1826.35 915.878 1826.88 924.096C1826.98 925.36 1826.93 927.046 1826.72 929.154H1807.91V926.467C1807.91 916.246 1802.54 911.136 1791.79 911.136H1739.16V924.728C1739.16 930.102 1740.32 934.158 1742.64 936.898C1745.06 939.532 1749.06 940.849 1754.65 940.849H1797.48C1804.01 940.849 1809.6 941.85 1814.23 943.852C1818.87 945.854 1822.35 948.594 1824.66 952.071C1826.98 955.442 1828.61 958.867 1829.56 962.344C1830.51 965.821 1830.93 969.509 1830.83 973.407C1830.51 982.152 1827.72 989.739 1822.45 996.166C1817.18 1002.49 1809.12 1005.86 1798.27 1006.28C1794.37 1006.49 1787.05 1006.6 1776.3 1006.6C1765.55 1006.6 1758.13 1006.49 1754.02 1006.28Z" fill="#053A44"/>
<path d="M1913.93 1006.28C1889.91 1005.33 1877.89 993.848 1877.89 971.827C1877.89 971.089 1877.95 970.246 1878.05 969.298H1896.86V971.352C1896.86 983.469 1903.44 989.528 1916.62 989.528H1955.02C1960.82 989.528 1964.98 988 1967.51 984.945C1970.04 981.889 1971.3 978.149 1971.3 973.723C1971.3 968.876 1970.04 965.083 1967.51 962.344C1965.08 959.499 1960.76 958.076 1954.55 958.076H1912.51C1906.18 958.076 1900.76 957.181 1896.23 955.39C1891.8 953.493 1888.48 950.912 1886.27 947.645C1884.06 944.274 1882.48 940.902 1881.53 937.53C1880.58 934.053 1880.11 930.207 1880.11 925.993C1880 913.243 1880.37 902.918 1881.21 895.015C1894.49 894.594 1909.5 894.33 1926.26 894.225C1943.01 894.12 1952.65 894.172 1955.18 894.383C1965.93 894.805 1973.72 897.807 1978.57 903.392C1983.52 908.976 1986.26 915.878 1986.79 924.096C1986.89 925.36 1986.84 927.046 1986.63 929.154H1967.82V926.467C1967.82 916.246 1962.45 911.136 1951.7 911.136H1899.07V924.728C1899.07 930.102 1900.23 934.158 1902.55 936.898C1904.97 939.532 1908.98 940.849 1914.56 940.849H1957.39C1963.92 940.849 1969.51 941.85 1974.14 943.852C1978.78 945.854 1982.26 948.594 1984.58 952.071C1986.89 955.442 1988.53 958.867 1989.48 962.344C1990.42 965.821 1990.85 969.509 1990.74 973.407C1990.42 982.152 1987.63 989.739 1982.36 996.166C1977.1 1002.49 1969.03 1005.86 1958.18 1006.28C1954.28 1006.49 1946.96 1006.6 1936.21 1006.6C1925.47 1006.6 1918.04 1006.49 1913.93 1006.28Z" fill="#053A44"/>
<path d="M2041.26 1005.65C2040.94 993.321 2040.79 974.882 2040.79 950.332C2040.79 925.782 2040.94 907.343 2041.26 895.015H2134.35V911.452C2123.29 911.768 2105.85 911.926 2082.04 911.926H2059.75V948.594H2060.23C2062.76 943.747 2067.39 941.323 2074.13 941.323H2082.04C2104.37 941.323 2120.65 941.429 2130.87 941.639V957.444C2120.65 957.655 2104.37 957.76 2082.04 957.76H2059.75V988.422H2082.67C2106.48 988.422 2123.87 988.58 2134.83 988.896V1005.65H2041.26Z" fill="#053A44"/>
<path d="M2217.7 1006.28C2193.68 1005.33 2181.67 993.848 2181.67 971.827C2181.67 971.089 2181.72 970.246 2181.82 969.298H2200.63V971.352C2200.63 983.469 2207.22 989.528 2220.39 989.528H2258.79C2264.59 989.528 2268.75 988 2271.28 984.945C2273.81 981.889 2275.07 978.149 2275.07 973.723C2275.07 968.876 2273.81 965.083 2271.28 962.344C2268.86 959.499 2264.54 958.076 2258.32 958.076H2216.28C2209.96 958.076 2204.53 957.181 2200 955.39C2195.57 953.493 2192.26 950.912 2190.04 947.645C2187.83 944.274 2186.25 940.902 2185.3 937.53C2184.35 934.053 2183.88 930.207 2183.88 925.993C2183.77 913.243 2184.14 902.918 2184.99 895.015C2198.26 894.594 2213.28 894.33 2230.03 894.225C2246.78 894.12 2256.42 894.172 2258.95 894.383C2269.7 894.805 2277.5 897.807 2282.34 903.392C2287.3 908.976 2290.03 915.878 2290.56 924.096C2290.67 925.36 2290.61 927.046 2290.4 929.154H2271.6V926.467C2271.6 916.246 2266.22 911.136 2255.48 911.136H2202.85V924.728C2202.85 930.102 2204 934.158 2206.32 936.898C2208.75 939.532 2212.75 940.849 2218.33 940.849H2261.16C2267.7 940.849 2273.28 941.85 2277.92 943.852C2282.55 945.854 2286.03 948.594 2288.35 952.071C2290.67 955.442 2292.3 958.867 2293.25 962.344C2294.2 965.821 2294.62 969.509 2294.51 973.407C2294.2 982.152 2291.4 989.739 2286.14 996.166C2280.87 1002.49 2272.81 1005.86 2261.96 1006.28C2258.06 1006.49 2250.73 1006.6 2239.99 1006.6C2229.24 1006.6 2221.81 1006.49 2217.7 1006.28Z" fill="#053A44"/>
<path d="M2377.61 1006.28C2353.59 1005.33 2341.58 993.848 2341.58 971.827C2341.58 971.089 2341.63 970.246 2341.74 969.298H2360.54V971.352C2360.54 983.469 2367.13 989.528 2380.3 989.528H2418.71C2424.5 989.528 2428.66 988 2431.19 984.945C2433.72 981.889 2434.99 978.149 2434.99 973.723C2434.99 968.876 2433.72 965.083 2431.19 962.344C2428.77 959.499 2424.45 958.076 2418.23 958.076H2376.19C2369.87 958.076 2364.44 957.181 2359.91 955.39C2355.49 953.493 2352.17 950.912 2349.96 947.645C2347.74 944.274 2346.16 940.902 2345.21 937.53C2344.27 934.053 2343.79 930.207 2343.79 925.993C2343.69 913.243 2344.06 902.918 2344.9 895.015C2358.17 894.594 2373.19 894.33 2389.94 894.225C2406.69 894.12 2416.34 894.172 2418.86 894.383C2429.61 894.805 2437.41 897.807 2442.26 903.392C2447.21 908.976 2449.95 915.878 2450.47 924.096C2450.58 925.36 2450.53 927.046 2450.32 929.154H2431.51V926.467C2431.51 916.246 2426.13 911.136 2415.39 911.136H2362.76V924.728C2362.76 930.102 2363.92 934.158 2366.23 936.898C2368.66 939.532 2372.66 940.849 2378.25 940.849H2421.08C2427.61 940.849 2433.19 941.85 2437.83 943.852C2442.47 945.854 2445.94 948.594 2448.26 952.071C2450.58 955.442 2452.21 958.867 2453.16 962.344C2454.11 965.821 2454.53 969.509 2454.43 973.407C2454.11 982.152 2451.32 989.739 2446.05 996.166C2440.78 1002.49 2432.72 1005.86 2421.87 1006.28C2417.97 1006.49 2410.65 1006.6 2399.9 1006.6C2389.15 1006.6 2381.72 1006.49 2377.61 1006.28Z" fill="#053A44"/>
<path d="M2542.4 1006.12C2530.5 1005.49 2521.38 1001.96 2515.06 995.534C2508.74 989.001 2505.37 980.467 2504.95 969.93C2504.42 957.075 2504.47 932.104 2505.1 895.015C2519.43 894.594 2535.08 894.33 2552.04 894.225C2569.11 894.12 2579.28 894.172 2582.55 894.383C2594.45 895.015 2603.57 898.545 2609.89 904.972C2616.21 911.4 2619.53 919.934 2619.85 930.576C2620.27 943.641 2620.27 956.759 2619.85 969.93C2619.53 980.467 2616.21 989.001 2609.89 995.534C2603.57 1001.96 2594.45 1005.49 2582.55 1006.12C2578.65 1006.23 2571.96 1006.28 2562.48 1006.28C2552.99 1006.28 2546.3 1006.23 2542.4 1006.12ZM2544.77 989.054H2580.02C2586.87 989.054 2592.03 987.105 2595.51 983.206C2599.09 979.202 2600.88 973.618 2600.88 966.453V934.053C2600.88 926.888 2599.14 921.357 2595.67 917.458C2592.19 913.454 2586.97 911.452 2580.02 911.452H2524.07V966.453C2524.07 973.618 2525.81 979.202 2529.29 983.206C2532.76 987.105 2537.93 989.054 2544.77 989.054Z" fill="#053A44"/>
<path d="M2670.72 1005.65C2670.41 993.321 2670.25 974.882 2670.25 950.332C2670.25 925.782 2670.41 907.343 2670.72 895.015H2777.41C2777.72 900.389 2777.93 911.294 2778.04 927.731C2778.04 939.637 2772.93 948.225 2762.71 953.493C2773.46 958.34 2778.83 966.4 2778.83 977.674C2778.83 990.424 2778.78 999.748 2778.67 1005.65H2759.86V981.151C2759.86 976.515 2758.55 972.775 2755.91 969.93C2753.38 966.98 2749.54 965.505 2744.37 965.505H2689.22V1005.65H2670.72ZM2689.22 956.18H2689.69C2692.22 951.438 2696.75 949.068 2703.28 949.068H2739.79C2746.64 949.068 2751.54 947.382 2754.49 944.01C2757.54 940.533 2759.07 936.055 2759.07 930.576V911.926H2689.22V956.18Z" fill="#053A44"/>
<path d="M2829.72 1005.65C2829.51 993.321 2829.4 974.882 2829.4 950.332C2829.4 925.782 2829.51 907.343 2829.72 895.015H2848.05C2848.26 907.343 2848.37 925.782 2848.37 950.332C2848.37 974.882 2848.26 993.321 2848.05 1005.65H2829.72Z" fill="#053A44"/>
<path d="M2890.45 1005.65L2948.14 895.015H2970.11L3027.79 1005.65H3006.62L2994.92 982.258H2923.64L2911.79 1005.65H2890.45ZM2986.7 965.347L2960.31 913.665H2958.1L2929.17 970.404L2929.49 970.72C2932.76 967.138 2937.34 965.347 2943.24 965.347H2986.7Z" fill="#053A44"/>
<path d="M1074.93 206.663L1185.51 206.639C1246.04 206.634 1302.8 202.788 1359.91 227.308C1481.83 279.644 1450.65 447.433 1379.7 528.672C1358.5 552.923 1331.85 574.466 1300.9 585.872C1374.98 624.299 1391.81 675.644 1377.51 756.295C1366.39 820.457 1335.62 879.583 1289.45 925.494C1251.5 963.679 1203.79 990.673 1151.51 1003.52C1106.6 1014.71 1066.03 1013.51 1020.11 1013.47L919.528 1013.4L609.718 1013.4C612.104 1001.09 614.366 988.757 616.5 976.407C646.549 985.348 666.772 959.127 661.945 932.744C656.575 903.411 650.175 909.159 660.553 879.763C676.109 870.426 681.417 859.532 687.124 842.918C708.123 842.469 711.847 840.355 731.547 833.77C731.61 841.272 731.772 845.221 732.815 852.606C736.467 870.66 748.125 887.723 756.391 905.651C765.072 922.481 774.589 964.272 790.96 975.094C820.329 994.523 845.795 961.646 841.81 932.645C839.93 918.964 837.708 910.418 834.794 898.473C838.832 884.71 849.744 875.697 858.847 863.868L1009.43 863.895C1077.28 863.922 1155.61 873.223 1193.71 801.559C1203.86 782.471 1211.59 757.617 1211.66 735.822C1211.88 669.104 1146.08 671.731 1097.67 671.794L1042.77 671.884C1000.58 627.646 955.428 605.643 898.371 585.476C899.541 580.772 901.052 576.238 902.518 571.624C936.34 572.82 962.921 573.18 972.798 532.881C990.122 532.782 1007.45 532.827 1024.77 532.998C1033.91 541.409 1043.42 548.794 1053.03 556.485C1093.27 588.687 1136.08 582.886 1157.11 532.863C1227.51 529.112 1256.48 499.446 1268.3 428.773C1276.52 379.671 1250.86 357.506 1204.47 351.46C1194.74 333.79 1176.08 314.836 1154.3 318.414C1142.01 320.436 1118.61 340.33 1111.67 350.648L1053.16 350.626C1055.46 346.043 1056.75 341.84 1058.4 337.011C1068.16 334.057 1080.15 326.195 1079.48 316.074C1078.05 294.148 1082.84 274.611 1085.98 253.056C1088.61 235.013 1089.5 220.047 1074.93 206.663Z" fill="#053A44"/>
<path d="M390.131 1.19288C421.74 -1.42472 456.741 1.19558 488.656 0.439981C587.007 -1.88707 725.969 10.9041 721.238 141.593C720.374 165.576 715.085 183.808 709.067 206.76L566.392 206.845C594.855 108.935 522.208 116.133 452.82 116.249C398.22 116.339 345.378 113.706 294.064 138.106C255.54 156.112 226.471 193.411 212.802 233.143C206.534 251.361 201.477 271.613 196.427 290.358L177.176 361.022L161.719 418.875C152.949 451.71 140.064 494.93 156.176 527.249C175.303 563.662 230.979 560.046 266.067 559.965C303.671 559.884 345.965 561.818 382.61 555.908C400.828 553.129 418.513 547.57 435.047 539.429C480.699 516.41 501.184 477.755 516.233 431.365L324.847 431.484L341.756 366.171C341.981 365.735 342.207 365.298 342.432 364.863C358.119 369.367 406.983 370.782 419.377 364.366C434.258 356.662 440.582 344.336 444.068 334.952C462.422 334.544 495.385 335.964 512.142 333.373C512.131 356.821 520.29 362.532 539.028 373.873C543.655 377.002 548.911 381.888 554.202 383.575C581.356 392.231 596.283 369.114 614.696 355.271C615.929 354.345 617.988 354.883 619.511 355.573C619.25 360.842 614.17 368.724 614.213 371.524C614.363 381.349 609.212 393.569 608.247 401.91C606.753 417.849 608.408 436.04 604.646 451.69C602.073 462.391 594.966 472.929 592.264 484.359C580.943 493.652 570.928 499.553 566.116 513.19C548.687 519.999 532.11 530.353 527.207 549.539L526.252 550.439C511.385 564.561 512.784 575.725 511.561 594.444C511.144 600.812 510.322 606.011 510.12 613.036C428.726 676.408 349.377 680.563 250.205 679.187C178.765 678.189 106.347 681.418 47.4497 630.91C1.1308 591.187 -6.31004 525.711 4.17925 468.923C13.3696 424.094 27.1413 378.957 39.157 334.664L59.4709 260.199C65.3429 239.104 70.4117 219.223 79.2279 199.066C93.1227 167.13 112.005 137.604 135.17 111.596C201.505 37.0972 292.859 6.82837 390.131 1.19288Z" fill="#053A44"/>
<path d="M932.552 315.536L933.469 314.699C939.145 309.479 948.096 300.355 951.181 293.242C965.699 259.781 953.898 203.577 1006.64 203.505C1018.72 203.487 1035.4 212.735 1047.39 215.323C1058.73 217.769 1068.68 227.165 1067.14 239.595C1065.27 254.696 1061.63 270.292 1059.22 285.379C1058.01 293.184 1061.61 308.731 1057.64 314.968C1054.31 317.461 1049.77 317.372 1045.51 317.76C1042.59 323.332 1033.56 341.49 1029.34 344.027C1015.38 345.232 1009.59 326.922 999.08 340.115C992.739 348.076 986.604 357.383 980.029 364.677L1005.31 364.545C1005.49 370.204 1006.27 379.181 1004.38 384.391C1027.06 399.826 1041.52 413.279 1048.03 440.453C1064.44 450.266 1079.72 457.912 1084.85 477.878C1085.7 481.247 1086.5 484.627 1087.27 488.016C1105.18 469.087 1143.91 435.746 1146.89 408.72C1148.65 392.699 1116.15 376.69 1133.56 357.315C1136.46 353.912 1155.98 338.689 1158.66 339.292C1209.26 350.736 1178.53 410.859 1168.48 439.035C1155.98 474.082 1148.78 495.549 1136.01 529.075C1106.08 594.425 1043.74 519.882 1013.9 494.875C1005.53 487.861 998.972 477.996 990.796 471.434C983.195 475.854 964.818 480.951 955.697 483.437C951.208 489.057 948.168 494.101 944.066 499.813C951.271 500.002 958.485 500.056 965.699 499.975C963.46 507.684 962.47 510.563 958.998 517.768C948.159 517.813 936.483 518.091 925.716 517.615C917.548 522.571 910.307 527.213 903.372 533.86C899.243 538.367 897.102 541.038 893.504 545.986C882.494 562.609 874.956 580.266 878.752 600.326C934.603 620.942 984.184 639.023 1026.54 685.15C1050.79 711.542 1073.16 741.712 1027.15 766.476C1017.8 771.504 1001.91 771.891 991.965 776.523C965.088 786.715 938.264 799.803 911.953 811.55C897.84 817.847 858.063 830.791 847.745 837.574L844.183 845.516C835.935 863.974 815.156 875.416 814.337 896.798C813.663 914.5 828.127 935.315 818.079 952.325C799.774 983.305 781.181 907.421 776.117 897.068C767.454 879.338 755.626 862.274 752.738 843.052C749.986 821.904 760.483 812.972 781.01 810.489C790.401 809.347 799.018 812.819 807.798 816.003C844.336 795.755 895.474 761.537 920.858 728.705C907.195 727.931 894.745 726.204 881.369 723.47C877.852 722.75 868.254 720.447 865.421 720.546C857.64 721.823 838.183 721.383 829.593 721.383L763.883 721.32L748.178 737.097L728.136 754.737C717.954 762.086 712.359 765.612 700.962 770.532C694.493 772.826 685.653 776.91 679.516 780.121C665.805 784.853 650.622 795.593 639.327 804.642C615.507 821.094 609.845 814.429 588.605 822.003C576.514 827.238 556.076 843.726 541.535 851.453C513.477 866.358 485.694 875.731 458.777 892.3C443.717 901.574 447.782 902.339 437.996 916.803C434.827 921.409 428.597 924.917 425.163 929.091C408.503 949.366 396.733 976.531 411.869 1000.91C416.726 1000.04 423.876 999.775 426.781 1003.69C436.504 1016.78 412.99 1018.77 407.063 1018.93C397.244 1019.18 392.646 1018.84 384.285 1017.2C360.761 995.934 367.66 969.029 365.62 941.99C365.048 934.416 357.099 920.419 354.41 912.252C347.815 892.219 353.687 876.28 374.634 869.965C390.302 865.414 398.827 863.678 414.113 871.314C435.367 858.343 464.234 839.13 481.966 821.787C495.563 808.492 504.346 793.362 521.252 780.976C549.178 760.53 590.24 769.912 616.269 743.628C631.214 728.543 643.425 704.706 658.596 687.111C664.742 680.841 668.464 676.308 675.374 669.786C681.065 665.019 687.625 658.902 692.348 653.235C698.325 646.507 699.676 643.628 703.139 635.686C706.305 630.945 707.771 624.963 709.237 619.503C710.515 612.541 710.704 609.546 710.92 602.412C711.405 576.236 720.553 555.044 741.296 538.6C763.388 521.096 787.19 502.035 799.117 475.703C800.044 473.597 801.402 469.253 802.221 466.912C804.766 460.509 805.504 456.523 806.961 449.728C808.185 443.089 808.257 439.128 808.472 432.326C808.814 427.347 808.805 421.292 808.931 416.217C809.246 411.122 810.289 403.841 810.838 398.566C811.36 393.745 812.709 386.991 813.546 382.086L814.904 377.079C818.322 364.911 822.226 353.295 829.044 342.616L818.745 340.265C810.155 336.494 798.344 332.433 789.385 329.711C781.406 326.462 764.405 318.312 758.801 312.447C741.818 294.689 748.376 295.391 723.567 302.336C730.412 306.103 731.653 308.036 736.25 314.405C727.147 314.432 693.014 315.102 685.629 313.896C680.465 314.358 673.232 316.513 667.002 316.916C646.492 318.241 631.189 318.451 610.975 324.366C599.611 335.928 568.326 384.861 552.966 354.152C515.114 349.944 535.871 308.628 566.381 304.194C566.329 302.179 566.43 300.432 566.521 298.42L567.578 297.659C574.075 297.029 592.457 296.946 598.801 297.999C609.532 294.175 627.113 285.65 638.523 280.81L668.761 267.912C688.392 259.792 707.807 249.975 727.111 241.762C737.716 237.254 758.099 246.121 769.343 249.416C786.704 254.501 805.945 260.986 824.214 263.262L825.113 263.366C838.174 262.035 868.641 263.125 883.339 263.267L880.641 277.185C895.15 285.479 905.782 304.749 919.662 315.613C923.827 315.646 928.441 315.79 932.552 315.536Z" fill="#053A44"/>
<path d="M925.698 517.615C932.859 512.073 937.951 506.496 944.051 499.811C951.257 500 958.472 500.054 965.687 499.973C963.447 507.683 962.457 510.562 958.985 517.768C948.144 517.813 936.467 518.092 925.698 517.615Z" fill="#77CDDE"/>
<path d="M825.089 263.365C838.149 262.035 868.614 263.124 883.311 263.266L880.613 277.184C855.859 266.256 850.022 269.182 826.195 263.63L825.089 263.365Z" fill="#77CDDE"/>
<path d="M685.618 313.897C697.627 310.031 711.47 305.22 723.561 302.335C730.407 306.102 731.649 308.036 736.246 314.406C727.142 314.433 693.004 315.102 685.618 313.897Z" fill="#77CDDE"/>
<path d="M980.017 364.675L1005.3 364.544C1005.49 370.203 1006.26 379.181 1004.37 384.392C999.332 381.305 981.403 370.77 979.217 366.361L980.017 364.675Z" fill="#77CDDE"/>
<path d="M793.157 689.266C802.477 694.592 809.629 698.353 819.318 702.95C819.315 702.95 819.312 702.95 819.31 702.95C833.297 708.221 851.978 714.796 865.406 720.544C857.625 721.821 838.168 721.381 829.577 721.381L763.866 721.317C769.29 715.173 774.849 709.155 780.543 703.272C780.547 703.272 780.551 703.272 780.555 703.272L793.157 689.266Z" fill="#77CDDE"/>
<path d="M566.37 304.195C566.318 302.18 566.418 300.433 566.509 298.42L567.566 297.659C574.064 297.029 592.449 296.946 598.793 297.999C588.01 302.878 578.384 307.427 566.37 304.195Z" fill="#77CDDE"/>
<path d="M810.84 398.564C810.291 403.839 809.248 411.12 808.933 416.216L627.974 416.266C628.2 410.55 629.144 404.167 629.859 398.427L810.84 398.564Z" fill="#77CDDE"/>
<path d="M523.898 635.646L703.134 635.683C699.671 643.626 698.321 646.504 692.343 653.233C634.623 651.748 570.328 653.116 512.097 653.152C517.322 646.648 519.555 642.924 523.898 635.646Z" fill="#77CDDE"/>
<path d="M789.384 329.709C798.344 332.432 810.155 336.493 818.746 340.264L813.879 348.321C793.666 348.018 651.62 349.823 647.182 347.648L647.045 343.908C640.158 339.294 624.026 335.572 615.021 330.711C654.093 330.183 693.419 330.677 732.461 330.522C741.69 330.485 783.942 331.319 789.384 329.709Z" fill="#77CDDE"/>
<path d="M620.857 466.014L738.064 466.354C753.816 466.324 787.774 465.298 802.203 466.911C801.384 469.252 800.026 473.596 799.099 475.702C790.418 477.194 783.06 483.146 776.835 483.469C760.67 484.307 742.49 483.787 726.262 483.781L614.185 483.812C616.72 477.957 618.732 472.026 620.857 466.014Z" fill="#77CDDE"/>
<path d="M710.914 602.41C710.698 609.544 710.509 612.539 709.232 619.502L530.554 619.394L530.717 602.077C589.614 602.212 652.517 600.953 710.914 602.41Z" fill="#77CDDE"/>
<path d="M494.788 669.648L675.373 669.783C668.463 676.305 664.741 680.839 658.595 687.109L478.468 687.19C484.088 680.605 488.659 675.774 494.788 669.648Z" fill="#77CDDE"/>
<path d="M627.375 432.434L808.463 432.324C808.247 439.126 808.175 443.087 806.952 449.727L626.285 449.664C626.99 443.943 627.131 438.194 627.375 432.434Z" fill="#77CDDE"/>
<path d="M459.295 280.44C466.161 277.391 493.824 264.294 499.491 264.024C543.294 261.931 589.611 263.355 633.64 263.422C643.412 263.437 658.991 266.762 668.743 267.911L638.505 280.809C629.817 279.643 592.947 280.537 581.792 280.55L459.295 280.44Z" fill="#77CDDE"/>
<path d="M887.386 209.128C882.483 208.879 878.075 209.011 873.496 207.355C879.029 206.147 949.449 205.964 954.936 207.099L955.143 208.239L954.603 208.649C933.706 235.472 946.642 264.556 925.861 293.375C918.971 287.151 910.883 276.546 903.551 269.161C903.965 245.652 916.596 219.629 887.386 209.128Z" fill="#053A44"/>
<path d="M639.228 364.66C690.853 364.037 743.784 364.629 795.535 364.648C802.677 370.167 806.986 372.649 814.902 377.079L813.544 382.086L632.936 382.14C634.599 376.705 637.223 370.1 639.228 364.66Z" fill="#77CDDE"/>
<path d="M537.316 567.734C591.485 568.633 647.096 567.914 701.451 568.094C699.395 574.148 698.482 579.41 697.245 585.671L532.049 585.68C533.344 577.926 534.507 574.885 537.316 567.734Z" fill="#77CDDE"/>
<path d="M605.318 499.992L762.981 499.974C755.847 507.098 751.071 511.569 743.065 517.578C736.993 518.486 703.089 517.875 695.176 517.866L586.244 517.677C591.847 511.722 599.146 505.515 605.318 499.992Z" fill="#77CDDE"/>
<path d="M359.121 771.779C365.449 770.736 399.54 771.239 407.611 771.239L517.09 771.311C508.452 776.34 495.733 782.187 486.511 786.703C479.882 790.13 443.251 788.834 434.061 788.843C399.805 788.942 365.548 788.861 331.292 788.592C341.293 779.425 346.388 776.241 359.121 771.779Z" fill="#77CDDE"/>
<path d="M566.901 534.065C618.085 533.543 670.09 534.011 721.343 534.083C717.16 538.958 714.227 544.418 710.251 549.411C708.227 551.939 707.103 551.426 704.126 551.597L547.103 551.381C554.011 543.267 558.088 540.101 566.901 534.065Z" fill="#77CDDE"/>
<path d="M422.455 296.795C465.886 296.849 516.744 295.524 559.485 297.145C538.885 301.43 520.604 309.863 500.805 314.603L362.563 314.541C375.142 301.977 386.051 305.037 402.268 302.081C409.559 300.752 415.393 298.981 422.455 296.795Z" fill="#77CDDE"/>
<path d="M465.866 703.434L599.825 703.344L584.602 719.797C584.476 719.932 584.371 720.085 584.223 720.193C581.255 722.351 466.73 721.2 452.957 721.182C456.781 714.283 460.84 709.461 465.866 703.434Z" fill="#77CDDE"/>
<path d="M748.16 737.093C789.692 737.57 831.747 737.129 873.333 737.201L862.889 754.769L728.118 754.733L748.16 737.093Z" fill="#77CDDE"/>
<path d="M315.69 804.765L457.956 804.801C449.293 811.116 446.701 812.402 436.324 815.307C408.106 822.018 397.948 822.531 369.303 822.558C346.838 822.612 324.374 822.513 301.91 822.279C306.114 815.164 310.055 810.684 315.69 804.765Z" fill="#77CDDE"/>
<path d="M441.836 737.121H568.034C562.221 742.635 554.118 749.121 547.884 754.401C545.378 755.175 519.492 754.833 514.987 754.833L421.878 754.707C429.888 748.779 435.214 744.524 441.836 737.121Z" fill="#77CDDE"/>
<path d="M700.943 770.529C708.014 771.599 715.651 771.122 722.829 771.239C756.319 771.788 790.152 770.484 823.606 771.284C812.155 776.007 791.87 784.544 780.4 787.782C774.679 789.392 748.493 788.88 740.514 788.871L667.574 788.673C671.235 786.388 676.981 783.311 679.496 780.118C685.634 776.907 694.473 772.823 700.943 770.529Z" fill="#77CDDE"/>
<path d="M189.381 872.605C203.134 871.948 220.495 872.425 234.469 872.425L316.057 872.344C307.974 875.843 300.207 879.918 292.358 883.912L281.994 890.092L172.696 889.768C176.098 879.801 179.404 875.978 189.381 872.605Z" fill="#77CDDE"/>
<path d="M639.316 804.637L746.083 804.781C737.601 808.928 711.505 820.056 702.959 821.198C687.337 823.276 661.625 822.781 645.287 822.538C628.509 822.295 604.738 823.195 588.592 821.999C609.833 814.424 615.495 821.09 639.316 804.637Z" fill="#77CDDE"/>
<path d="M785.183 229.273L846.81 229.219C857.461 229.186 873.068 228.622 883.17 229.793C887.164 233.356 887.38 241.222 884.609 245.945C884.016 246.96 881.731 246.701 880.372 246.801L780.883 246.871C782.106 240.926 783.653 235.145 785.183 229.273Z" fill="#77CDDE"/>
<path d="M280.837 838.541L383.47 838.685L356.681 852.52C348.38 857.233 326.891 855.596 316.682 855.578L255.483 855.407C264.714 850.163 272.322 844.73 280.837 838.541Z" fill="#77CDDE"/>
<path d="M600.505 838.649L667.373 838.514C664.584 844.811 661.752 849.462 658.244 855.408L637.771 855.462L574.835 855.516C574.307 853.941 573.833 852.349 573.411 850.739C572.254 846.439 571.615 844.775 573.843 840.862C579.367 836.742 592.373 838.613 600.505 838.649Z" fill="#77CDDE"/>
<path d="M172.218 905.914C203.055 905.77 233.893 905.833 264.729 906.103C262.353 910.142 260.186 913.309 257.542 917.132C255.745 919.255 253.591 921.531 251.71 923.618L179.391 923.537C176.004 917.771 173.86 912.373 172.218 905.914Z" fill="#77CDDE"/>
<path d="M352.847 330.4L424.163 330.659C421.861 333.926 419.227 337.338 416.83 340.572C414.623 343.215 411.999 345.716 409.555 348.163C394.284 347.997 378.93 348.306 363.643 348.268C351.042 348.237 351.413 340.846 352.847 330.4Z" fill="#77CDDE"/>
<path d="M582.244 872.48L641.453 872.381L636.125 887.438L635.185 889.084C631.572 890.631 598.237 889.956 591.665 889.938C588.842 884.271 585.295 878.092 582.244 872.48Z" fill="#77CDDE"/>
<path d="M893.483 545.983C897.081 541.036 899.222 538.364 903.35 533.858C918.641 534.524 935.731 534.101 951.157 534.02C946.965 541.414 942.603 548.591 933.716 550.642C920.404 553.709 905.482 552.027 893.483 545.983Z" fill="#77CDDE"/>
<path d="M199.776 940.294L235.436 940.249C233.553 944.828 231.186 951.315 228.202 955.201C225.843 958.269 225.434 957.639 221.98 957.891L185.872 957.783C185.803 951.755 185.246 946.286 184.693 940.294H199.776Z" fill="#77CDDE"/>
<path d="M184.667 973.954L224.974 974.026C225.248 981.286 225.582 984.579 226.841 991.722L188.95 991.38C186.974 985.092 185.998 980.431 184.667 973.954Z" fill="#77CDDE"/>
<path d="M599.214 906.041L633.884 906.068C635.091 912.41 636.574 917.403 638.388 923.62L606.185 923.503C603.905 918.168 600.837 911.457 599.214 906.041Z" fill="#77CDDE"/>
<path d="M195.143 1008.22C202.68 1008.14 241.809 1007.27 246.525 1008.75C247.152 1011.36 246.08 1013.85 245.33 1016.55C241.672 1018.38 211.105 1017.36 205.054 1017.18C199.795 1013.64 199.182 1013.24 195.143 1008.22Z" fill="#77CDDE"/>
<path d="M612.809 940.205C622.64 940.124 632.472 940.115 642.304 940.196C640.755 946.826 640.572 948.238 637.511 954.464C624.794 964.521 615.457 952.718 612.809 940.205Z" fill="#77CDDE"/>
<path d="M815.111 204.263C832.183 202.505 840.791 205.976 856.27 212.643L837.696 212.863L795.854 212.847C803.391 208.165 806.593 206.365 815.111 204.263Z" fill="#77CDDE"/>
<path d="M553.48 240.287C562.345 240.532 569.241 242.023 576.839 246.682L558.632 246.561L533.168 246.418C541.163 242.624 544.811 241.382 553.48 240.287Z" fill="#77CDDE"/>
</svg>
